<svg width="23" height="22" viewBox="0 0 23 22" fill="none" xmlns="http://www.w3.org/2000/svg">
<path d="M3.84191 14.5439C3.84191 14.5439 3.83716 14.5487 3.83716 14.5439" stroke="#502727" stroke-width="0.7" stroke-miterlimit="10"/>
<path d="M12.2433 14.4229H12.2385" stroke="#502727" stroke-width="0.7" stroke-miterlimit="10"/>
<path d="M14.4128 15.373C14.8416 15.701 15.079 16.0683 15.079 16.4526C15.079 17.8328 12.0214 18.9534 8.2549 18.9534C4.4884 18.9534 1.43079 17.8328 1.43079 16.4526C1.43079 16.2271 1.51278 16.0119 1.6648 15.8052" stroke="#502727" stroke-width="0.7" stroke-miterlimit="10"/>
<path d="M1.43079 18.6592C1.43079 20.0428 4.4884 21.1599 8.2549 21.1599C12.0214 21.1599 15.079 20.0428 15.079 18.6592" stroke="#502727" stroke-width="0.7" stroke-miterlimit="10"/>
<path d="M1.43079 16.4541V18.6593" stroke="#502727" stroke-width="0.7" stroke-miterlimit="10"/>
<path d="M15.079 16.4541V18.661" stroke="#502727" stroke-width="0.7" stroke-miterlimit="10"/>
<path d="M2.70146 10.8682C1.6441 11.3089 1.00183 11.8845 1.00183 12.5165C1.00183 13.8967 4.05603 15.0173 7.82595 15.0173C10.9331 15.0173 13.5551 14.2537 14.3785 13.2118L14.3819 13.2083" stroke="#502727" stroke-width="0.7" stroke-miterlimit="10"/>
<path d="M1 14.7217C1 16.1053 4.05762 17.2224 7.82412 17.2224C11.5906 17.2224 14.6482 16.1053 14.6482 14.7217" stroke="#502727" stroke-width="0.7" stroke-miterlimit="10"/>
<path d="M1.00183 12.5166V14.7218" stroke="#502727" stroke-width="0.7" stroke-miterlimit="10"/>
<path d="M14.6482 14.7219V13.1025" stroke="#502727" stroke-width="0.7" stroke-miterlimit="10"/>
<path d="M16.3484 9.25082C16.3484 10.631 13.2942 11.7482 9.52431 11.7482C5.75439 11.7482 2.7002 10.631 2.7002 9.25082C2.7002 9.23203 2.7002 9.21324 2.70361 9.19445C3.9147 9.89138 6.04307 10.3526 8.46013 10.3526C12.1771 10.3526 15.2005 9.26619 15.2808 7.9082C15.9573 8.29254 16.3484 8.75545 16.3484 9.25082Z" stroke="#502727" stroke-width="0.7" stroke-miterlimit="10"/>
<path d="M2.7002 11.4551C2.7002 12.8387 5.75781 13.9558 9.52431 13.9558C13.2908 13.9558 16.3484 12.8387 16.3484 11.4551" stroke="#502727" stroke-width="0.7" stroke-miterlimit="10"/>
<path d="M2.70203 9.24902V11.4543" stroke="#502727" stroke-width="0.7" stroke-miterlimit="10"/>
<path d="M16.3484 9.24902V11.456" stroke="#502727" stroke-width="0.7" stroke-miterlimit="10"/>
<path d="M2.70322 9.19418C2.02679 8.80984 1.63562 8.34693 1.63562 7.85156" stroke="#502727" stroke-width="0.7" stroke-miterlimit="10"/>
<path d="M15.2844 7.85156C15.2844 7.87044 15.2844 7.88932 15.281 7.90819" stroke="#502727" stroke-width="0.7" stroke-miterlimit="10"/>
<path d="M1.63562 5.64648V7.85173" stroke="#502727" stroke-width="0.7" stroke-miterlimit="10"/>
<path d="M15.2819 7.85294V5.70066V5.6477V5.64258" stroke="#502727" stroke-width="0.7" stroke-miterlimit="10"/>
<path d="M15.2874 3.49905C15.2874 3.51613 15.2874 3.54004 15.2823 3.55712C15.2601 3.93292 15.0141 4.28651 14.5853 4.60423C14.3342 4.787 14.0268 4.96123 13.6595 5.11839C12.4126 5.65987 10.5472 5.9998 8.46328 5.9998C6.90714 5.9998 5.47228 5.80678 4.3261 5.48564C2.68968 5.02956 1.63916 4.30872 1.63916 3.50075C1.63916 2.12226 4.68994 1 8.46328 1C12.2366 1 15.2874 2.12226 15.2874 3.49905Z" stroke="#502727" stroke-width="0.7" stroke-miterlimit="10"/>
<path d="M1.63916 5.7041C1.63916 5.75705 1.64428 5.80659 1.65283 5.85613C1.66649 5.95862 1.70236 6.05769 1.7519 6.16018C1.77411 6.20118 1.79631 6.24559 1.82364 6.28488C1.82364 6.29 1.82877 6.29342 1.83218 6.29854C1.86293 6.34296 1.89538 6.38737 1.93467 6.4369C1.97054 6.48132 2.01154 6.52573 2.05937 6.57185C2.10036 6.61626 2.14819 6.66067 2.20285 6.70167C2.25581 6.75121 2.31047 6.79562 2.36855 6.83149C2.42662 6.8759 2.48983 6.92031 2.55132 6.95619C2.60086 6.99206 2.65039 7.01939 2.70335 7.05014C2.72043 7.05868 2.73922 7.06722 2.7563 7.07747C2.82292 7.11846 2.89979 7.15775 2.97495 7.19362C3.10989 7.26024 3.25167 7.32857 3.40369 7.38664C3.4669 7.41397 3.53351 7.4396 3.60013 7.46351C3.73508 7.51305 3.87686 7.56258 4.02547 7.607C4.11942 7.63774 4.22191 7.6702 4.3244 7.69582C4.41322 7.72315 4.50375 7.74536 4.5977 7.76756C4.69165 7.7949 4.7856 7.8171 4.88467 7.83418C5.08624 7.88372 5.29122 7.92301 5.50645 7.95888C5.63627 7.98109 5.76609 8.00329 5.89591 8.02208C5.97277 8.03575 6.04793 8.04429 6.1248 8.05283C6.22729 8.06991 6.32978 8.08357 6.4374 8.09382C6.54501 8.10749 6.65604 8.12116 6.7722 8.1297C6.95155 8.14678 7.13433 8.16044 7.32222 8.17069C7.51525 8.18436 7.71169 8.1929 7.91325 8.19802C8.00207 8.20315 8.09602 8.20315 8.18656 8.20315C8.28051 8.20827 8.36933 8.20827 8.46328 8.20827C8.69559 8.20827 8.92448 8.20315 9.15167 8.19461C9.54113 8.18094 9.92034 8.15361 10.2876 8.11774C10.4482 8.10066 10.6053 8.08187 10.7625 8.06479C10.8701 8.0477 10.9777 8.03404 11.0836 8.01525C11.3877 7.97084 11.678 7.91618 11.9548 7.85468C12.0795 7.82735 12.2059 7.80173 12.322 7.76927C12.4689 7.7334 12.6124 7.69241 12.7474 7.65312H12.7525C12.896 7.61212 13.0343 7.56771 13.1641 7.51817C13.253 7.49084 13.3384 7.4601 13.4187 7.42422C13.5075 7.39348 13.5929 7.3576 13.6732 7.32173C13.8611 7.24657 14.0302 7.16117 14.1873 7.06722C14.2454 7.03989 14.2984 7.00914 14.3479 6.97327C14.3974 6.94594 14.447 6.91519 14.4914 6.87932C14.5358 6.85199 14.5802 6.82124 14.6212 6.78537C14.6622 6.75462 14.7015 6.72217 14.7425 6.6863C14.7835 6.65555 14.8228 6.61968 14.8535 6.58381C14.9031 6.53939 14.9423 6.49498 14.9782 6.44886C15.0056 6.41811 15.0312 6.38566 15.05 6.35491C15.0722 6.32758 15.0944 6.30196 15.108 6.27463C15.1354 6.23876 15.1525 6.19776 15.1712 6.1636C15.1986 6.11406 15.2157 6.06452 15.2344 6.0167C15.2618 5.93641 15.2789 5.851 15.284 5.7656C15.2891 5.74851 15.2891 5.72972 15.2891 5.70752" stroke="#502727" stroke-width="0.7" stroke-miterlimit="10"/>
<path d="M1.63916 5.70426V3.49902" stroke="#502727" stroke-width="0.7" stroke-miterlimit="10"/>
<path d="M15.2845 5.70939V5.70426V5.64106V3.5571V3.49902" stroke="#502727" stroke-width="0.7" stroke-miterlimit="10"/>
<circle cx="16.5397" cy="15.7004" r="5.95" fill="#FFF8F6" stroke="#502727" stroke-width="0.7"/>
</svg>
