<svg width="26" height="24" viewBox="0 0 26 24" fill="none" xmlns="http://www.w3.org/2000/svg">
<path d="M24.6382 7.98833H2.10049C2.01131 7.98833 1.93564 7.92888 1.91132 7.8451C1.8897 7.76133 1.92483 7.66945 2.0005 7.62621L7.63494 4.33203L13.2694 1.03514C13.3315 1.00001 13.4045 1.00001 13.4666 1.03514L24.722 7.61811C24.7869 7.65053 24.8328 7.71539 24.8328 7.79376C24.8328 7.90185 24.7463 7.98833 24.6382 7.98833Z" stroke="#502727" stroke-width="0.7" stroke-miterlimit="10"/>
<path d="M9.25085 19.7276V18.4629C9.25085 18.3548 9.16438 18.2684 9.05628 18.2684H8.48608V9.60186H9.05628C9.16438 9.60186 9.25085 9.51538 9.25085 9.40729V8.14258" stroke="#502727" stroke-width="0.7" stroke-miterlimit="10"/>
<path d="M5.13733 8.13672V9.40143C5.13733 9.50952 5.2238 9.596 5.3319 9.596H5.9021V18.2625H5.3319C5.2238 18.2625 5.13733 18.349 5.13733 18.4571V19.7218" stroke="#502727" stroke-width="0.7" stroke-miterlimit="10"/>
<path d="M15.4248 19.7276V18.4629C15.4248 18.3548 15.3383 18.2684 15.2302 18.2684H14.66V9.60186H15.2302C15.3383 9.60186 15.4248 9.51538 15.4248 9.40729V8.14258" stroke="#502727" stroke-width="0.7" stroke-miterlimit="10"/>
<path d="M11.313 8.13672V9.40143C11.313 9.50952 11.3995 9.596 11.5076 9.596H12.0778V18.2625H11.5076C11.3995 18.2625 11.313 18.349 11.313 18.4571V19.7218" stroke="#502727" stroke-width="0.7" stroke-miterlimit="10"/>
<path d="M21.5977 19.7276V18.4629C21.5977 18.3548 21.5112 18.2684 21.4031 18.2684H20.8329V9.60186H21.4031C21.5112 9.60186 21.5977 9.51538 21.5977 9.40729V8.14258" stroke="#502727" stroke-width="0.7" stroke-miterlimit="10"/>
<path d="M17.4851 8.13672V9.40143C17.4851 9.50952 17.5716 9.596 17.6797 9.596H18.2526V18.2625H17.6797C17.5716 18.2625 17.4851 18.349 17.4851 18.4571V19.7218" stroke="#502727" stroke-width="0.7" stroke-miterlimit="10"/>
<path d="M3.0481 21.3623V20.0705C3.0481 19.9625 3.13457 19.876 3.24267 19.876H22.5862C22.6943 19.876 22.7808 19.9625 22.7808 20.0705V21.3623" stroke="#502727" stroke-width="0.7" stroke-miterlimit="10"/>
<path d="M24.6349 23H1.19457C1.08648 23 1 22.9135 1 22.8054V21.7082C1 21.6001 1.08648 21.5137 1.19457 21.5137H24.6349C24.743 21.5137 24.8295 21.6001 24.8295 21.7082V22.8054C24.8295 22.9135 24.743 23 24.6349 23Z" stroke="#502727" stroke-width="0.7" stroke-miterlimit="10"/>
<path d="M13.368 6.45641C12.5302 6.45641 11.8492 5.77541 11.8492 4.93768C11.8492 4.09994 12.5302 3.41895 13.368 3.41895C14.2057 3.41895 14.884 4.09994 14.884 4.93768C14.884 5.77541 14.203 6.45641 13.368 6.45641Z" stroke="#502727" stroke-width="0.7" stroke-miterlimit="10"/>
</svg>
