<svg width="27" height="25" viewBox="0 0 27 25" fill="none" xmlns="http://www.w3.org/2000/svg">
<path d="M13.0161 1.29891C13.2066 0.900364 13.7934 0.900364 13.9839 1.29891L17.2839 8.20463C17.3616 8.36706 17.521 8.4789 17.7051 8.49996L25.5292 9.39538C25.9808 9.44705 26.1621 9.98576 25.8283 10.2837L20.0437 15.4471C19.9076 15.5686 19.8467 15.7495 19.8828 15.925L21.4183 23.3841C21.507 23.8146 21.0322 24.1475 20.6354 23.9332L13.7603 20.2186C13.5986 20.1312 13.4014 20.1312 13.2397 20.2186L6.36458 23.9332C5.9678 24.1475 5.49304 23.8146 5.58166 23.3841L7.11718 15.925C7.15329 15.7495 7.09238 15.5686 6.95632 15.4471L1.17172 10.2837C0.837884 9.98576 1.01923 9.44705 1.47077 9.39538L9.29492 8.49996C9.47896 8.4789 9.63844 8.36706 9.71606 8.20463L13.0161 1.29891Z" stroke="#502727" stroke-width="0.7" stroke-linecap="round" stroke-linejoin="round"/>
</svg>
